<svg id="Layer_1" data-name="Layer 1" xmlns="http://www.w3.org/2000/svg" viewBox="0 0 54.46 77.33">
  <defs>
    <style>
      .cls-1 {
        fill: #12528a;
      }

      .cls-2 {
        fill: #fff;
      }
    </style>
  </defs>
  <title>COMP_HOME</title>
  <g id="Layer_1-2" data-name="Layer_1">
    <path class="cls-1" d="M54.46,27.23V54.46H0V27.23a27.23,27.23,0,1,1,54.46,0Z"/>
    <polygon class="cls-1" points="0 69.61 54.46 69.61 54.46 77.33 0 77.33 0 69.61"/>
    <path class="cls-1" d="M4.74,57.68A4.69,4.69,0,0,0,1.38,59a4.52,4.52,0,0,0,0,6.49,4.74,4.74,0,0,0,3.36,1.29,4.66,4.66,0,0,0,3.57-1.66L7,64a2.88,2.88,0,0,1-2.25,1,2.77,2.77,0,0,1-2-.78,2.69,2.69,0,0,1-.8-2,2.65,2.65,0,0,1,.81-2,2.73,2.73,0,0,1,2-.8,2.86,2.86,0,0,1,2.24,1L8.3,59.32A4.71,4.71,0,0,0,4.74,57.68Zm6.62,1.91h4.07V57.82h-6v1.77Zm7.53,7v-7h1.71a1.11,1.11,0,0,1,1.1,1.16A1.17,1.17,0,0,1,20.42,62h-.27v1.72h0L22,66.62h2.2l-2.15-3.4a2.8,2.8,0,0,0,.68-4.56,2.91,2.91,0,0,0-2.11-.85H17v8.8h1.93Zm10,0v-7h2.35V57.82H24.54v1.77h2.39v7Zm4,0,.45-.93h0l2.06-4.44,2.1,4.5.42.87H40l-4.59-9.31-4.59,9.31H32.9Zm7.35-1.81a3.83,3.83,0,0,0,3.61,1.95c2.16,0,3.27-1.06,3.27-2.69,0-1.26-.64-2-2.25-2.61l-.76-.28L43.5,61l-.39-.19a.64.64,0,0,1-.34-.63c0-.42.42-.72,1.06-.72a1.88,1.88,0,0,1,1.58.68l1.3-1a3.37,3.37,0,0,0-2.93-1.44,3.23,3.23,0,0,0-2.08.68,2.17,2.17,0,0,0-.85,1.81c0,1.33.76,2,2.13,2.55.25.1.76.27,1,.35a3,3,0,0,1,.76.33.84.84,0,0,1,.48.73c0,.47-.42.87-1.31.87a2.4,2.4,0,0,1-2.21-1.16l-1.41,1Zm7.33,0a3.83,3.83,0,0,0,3.61,1.95c2.16,0,3.27-1.06,3.27-2.69,0-1.26-.64-2-2.25-2.61l-.76-.28L50.83,61l-.39-.19a.64.64,0,0,1-.34-.63c0-.42.42-.72,1.06-.72a1.88,1.88,0,0,1,1.58.68l1.3-1a3.37,3.37,0,0,0-2.93-1.44,3.23,3.23,0,0,0-2.08.68,2.16,2.16,0,0,0-.85,1.81c0,1.33.76,2,2.13,2.55.25.1.76.27,1,.35a3,3,0,0,1,.76.33.84.84,0,0,1,.48.73c0,.47-.42.87-1.31.87A2.4,2.4,0,0,1,49,63.84ZM11.36,66.62h4.07V64.85h-6v1.77Zm0-3.52h4.07V61.34h-6v1.77Z"/>
    <path class="cls-2" d="M10.8,72.36a1.28,1.28,0,0,0-.92.37,1.33,1.33,0,0,0,0,1.85,1.28,1.28,0,0,0,.92.37,1.22,1.22,0,0,0,1-.44l-.19-.17a1,1,0,0,1-.77.35,1,1,0,0,1-.73-.29,1.1,1.1,0,0,1,0-1.49,1,1,0,0,1,.73-.3,1,1,0,0,1,.76.34l.19-.17A1.22,1.22,0,0,0,10.8,72.36Z"/>
    <path id="_1" data-name="1" class="cls-2" d="M12.42,74.58a1.28,1.28,0,0,0,.92.37,1.26,1.26,0,0,0,.92-.37,1.32,1.32,0,0,0,0-1.85,1.26,1.26,0,0,0-.92-.37,1.28,1.28,0,0,0-.92.37,1.33,1.33,0,0,0,0,1.85Zm.19-1.67a1,1,0,0,1,.73-.3,1,1,0,0,1,.73.3,1.1,1.1,0,0,1,0,1.49,1,1,0,0,1-.73.29,1,1,0,0,1-.73-.29,1.1,1.1,0,0,1,0-1.49Z"/>
    <polygon id="_12" data-name="12" class="cls-2" points="15.42 74.9 15.42 73.15 16.34 74.48 17.27 73.15 17.27 74.9 17.55 74.9 17.55 72.33 16.34 74.04 15.14 72.33 15.14 74.9 15.42 74.9"/>
    <path id="_123" data-name="123" class="cls-2" d="M18.49,74.9v-1H19a.75.75,0,0,0,.54-.21.74.74,0,0,0,.22-.54.72.72,0,0,0-.22-.54A.74.74,0,0,0,19,72.4h-.8v2.5Zm0-2.24H19a.47.47,0,0,1,.35.14.52.52,0,0,1,0,.72.47.47,0,0,1-.35.14h-.51Z"/>
    <polygon id="_1234" data-name="1234" class="cls-2" points="21.7 74.9 21.7 74.64 20.54 74.64 20.54 73.71 21.61 73.71 21.61 73.45 20.54 73.45 20.54 72.66 21.67 72.66 21.67 72.4 20.26 72.4 20.26 74.9 21.7 74.9"/>
    <polygon id="_12345" data-name="12345" class="cls-2" points="22.97 74.9 22.97 72.66 23.65 72.66 23.65 72.4 22.01 72.4 22.01 72.66 22.69 72.66 22.69 74.9 22.97 74.9"/>
    <polygon id="_123456" data-name="123456" class="cls-2" points="25.52 74.9 25.52 74.64 24.36 74.64 24.36 73.71 25.43 73.71 25.43 73.45 24.36 73.45 24.36 72.66 25.49 72.66 25.49 72.4 24.08 72.4 24.08 74.9 25.52 74.9"/>
    <polygon id="_1234567" data-name="1234567" class="cls-2" points="26.33 74.9 26.33 73.01 28.08 74.99 28.08 72.4 27.8 72.4 27.8 74.29 26.05 72.31 26.05 74.9 26.33 74.9"/>
    <polygon id="_12345678" data-name="12345678" class="cls-2" points="29.47 74.9 29.47 72.66 30.15 72.66 30.15 72.4 28.52 72.4 28.52 72.66 29.2 72.66 29.2 74.9 29.47 74.9"/>
    <path id="_123456789" data-name="123456789" class="cls-2" d="M32.35,74.9v-1h.52a.75.75,0,0,0,.54-.21.74.74,0,0,0,.22-.54.72.72,0,0,0-.22-.54.74.74,0,0,0-.54-.22h-.8v2.5Zm0-2.24h.51a.47.47,0,0,1,.35.14.52.52,0,0,1,0,.72.47.47,0,0,1-.35.14h-.51Z"/>
    <polygon id="_12345678910" data-name="12345678910" class="cls-2" points="35.55 74.9 35.55 74.64 34.4 74.64 34.4 73.71 35.46 73.71 35.46 73.45 34.4 73.45 34.4 72.66 35.53 72.66 35.53 72.4 34.12 72.4 34.12 74.9 35.55 74.9"/>
    <path id="_1234567891011" data-name="1234567891011" class="cls-2" d="M36.36,74.9v-1h.57l.56,1h.32l-.6-1a.74.74,0,0,0,.48-.71.7.7,0,0,0-.22-.53.73.73,0,0,0-.53-.21h-.85v2.5Zm0-2.24h.56a.47.47,0,0,1,.48.49.49.49,0,0,1-.14.36.47.47,0,0,1-.35.14h-.54Z"/>
    <path id="_123456789101112" data-name="123456789101112" class="cls-2" d="M38.07,74.35a.87.87,0,0,0,.86.6.79.79,0,0,0,.58-.2.66.66,0,0,0,.21-.5.6.6,0,0,0-.16-.45,1.72,1.72,0,0,0-.54-.33l-.21-.1-.15-.09a.33.33,0,0,1-.15-.3.37.37,0,0,1,.4-.35.46.46,0,0,1,.44.26l.24-.12a.71.71,0,0,0-.67-.4.7.7,0,0,0-.49.18.57.57,0,0,0-.19.44.55.55,0,0,0,.16.42,1.87,1.87,0,0,0,.5.3,1.83,1.83,0,0,1,.43.24.39.39,0,0,1,.13.31.48.48,0,0,1-.08.27.47.47,0,0,1-.42.18.64.64,0,0,1-.63-.45Z"/>
    <path id="_12345678910111213" data-name="12345678910111213" class="cls-2" d="M40.43,74.58a1.28,1.28,0,0,0,.92.37,1.26,1.26,0,0,0,.92-.37,1.32,1.32,0,0,0,0-1.85,1.26,1.26,0,0,0-.92-.37,1.28,1.28,0,0,0-.92.37,1.33,1.33,0,0,0,0,1.85Zm.19-1.67a1,1,0,0,1,.73-.3,1,1,0,0,1,.73.3,1.1,1.1,0,0,1,0,1.49,1,1,0,0,1-.73.29,1,1,0,0,1-.73-.29,1.1,1.1,0,0,1,0-1.49Z"/>
    <polygon id="_1234567891011121314" data-name="1234567891011121314" class="cls-2" points="43.44 74.9 43.44 73.01 45.19 74.99 45.19 72.4 44.91 72.4 44.91 74.29 43.16 72.31 43.16 74.9 43.44 74.9"/>
    <path class="cls-2" d="M29.73,36.76,47.85,18.65a22.22,22.22,0,0,0-4.08-6.43l-14,14L23,19.48,17.7,24.73l12,12Zm-2.5-23.21a13.62,13.62,0,0,1,8.88,3.27l6.13-6.13A22.33,22.33,0,0,0,4.9,27.23s0,.06,0,.09A22.33,22.33,0,0,0,42.24,43.77l-6.13-6.13A13.68,13.68,0,0,1,13.56,27.32s0-.06,0-.09A13.68,13.68,0,0,1,27.23,13.55Z"/>
  </g>
</svg>
